<svg width="40" height="40" viewBox="0 0 40 40" fill="none" xmlns="http://www.w3.org/2000/svg">
<rect x="1" y="1" width="38" height="38" rx="19" stroke="#808080" stroke-width="2"/>
<g clip-path="url(#clip0_19_2289)">
<path fill-rule="evenodd" clip-rule="evenodd" d="M13 18.6013H24.5893L22.3006 16.3126C21.9101 15.922 21.9101 15.2889 22.3006 14.8984C22.6911 14.5078 23.3243 14.5078 23.7148 14.8984L27.7072 18.8908C27.9029 19.0865 28.0005 19.3431 28.0001 19.5996C28.0005 19.8561 27.9029 20.1127 27.7072 20.3084L23.7072 24.3084C23.3167 24.6989 22.6835 24.6989 22.293 24.3084C21.9025 23.9178 21.9025 23.2847 22.293 22.8941L24.5859 20.6013H13C12.4477 20.6013 12 20.1536 12 19.6013C12 19.049 12.4477 18.6013 13 18.6013Z" fill="#292D34"/>
</g>
<defs>
<clipPath id="clip0_19_2289">
<rect width="16" height="11" fill="white" transform="translate(12 14.5)"/>
</clipPath>
</defs>
</svg>
